<svg xmlns="http://www.w3.org/2000/svg" viewBox="0 0 60 60">
    <defs>
        <style>.cls-1{fill:#fff;}.cls-2{fill:#3828cc;}</style>
    </defs>
    <g id="Layer_2" data-name="Layer 2">
        <g id="Layer_2-2" data-name="Layer 2">
            <circle class="cls-1" cx="30" cy="30" r="20.29"/>
            <path class="cls-2" d="M30,0A30,30,0,1,0,60,30,30,30,0,0,0,30,0Zm8.38,39.65a2,2,0,1,1,2-2A2,2,0,0,1,38.38,39.65ZM43,30c0,.33,0,.65,0,1h0c0,.27-.05.53-.09.81a2.93,2.93,0,0,1,0,.29A3.12,3.12,0,0,1,40,34.59h0a3.68,3.68,0,0,1-1.79-.3s-.05,0-.07,0a3.47,3.47,0,0,1-1.88-2.48v0a6.5,6.5,0,0,0,.24-2v-.07c0-.07,0-.15,0-.24a1.85,1.85,0,0,0,0-.23.3.3,0,0,0,0-.16,2,2,0,0,0-.07-.42.94.94,0,0,0,0-.16,2.53,2.53,0,0,0-.14-.49c-.06-.19-.13-.37-.21-.56a3.89,3.89,0,0,0-.25-.5.07.07,0,0,0,0-.06,4.64,4.64,0,0,0-.25-.42,3.89,3.89,0,0,0-.28-.39,2.85,2.85,0,0,0-.27-.32.58.58,0,0,0-.12-.14c-.12-.13-.25-.25-.38-.37a4.11,4.11,0,0,0-.45-.38,4,4,0,0,0-.89-.56.71.71,0,0,0-.21-.11,4.43,4.43,0,0,0-.45-.2,3.69,3.69,0,0,0-.56-.19,5.22,5.22,0,0,0-1.19-.23l-.16,0a4.74,4.74,0,0,0-1.13,0h0a5.52,5.52,0,0,0-1.14.25,4,4,0,0,0-.58.2s0,0,0,0a5.06,5.06,0,0,0-1.1.59c-.18.12-.34.25-.5.38a4.4,4.4,0,0,0-.39.35c-.14.13-.27.27-.39.4a6.39,6.39,0,0,0-1.7,4.17,1.27,1.27,0,0,0,0,.2c0,.16,0,.31,0,.47a1.33,1.33,0,0,0,0,.28,1.23,1.23,0,0,0,0,.19,1.62,1.62,0,0,0,0,.19.4.4,0,0,0,0,.15,3.59,3.59,0,0,0,.12.47.57.57,0,0,0,0,.14c.06.18.12.36.2.54a3.11,3.11,0,0,0,.22.45,3.48,3.48,0,0,0,.38.64,3.59,3.59,0,0,0,.37.5,4,4,0,0,0,.39.43l.18.18a4.53,4.53,0,0,0,.81.65.05.05,0,0,0,0,0,3.09,3.09,0,0,0,.42.25,1.74,1.74,0,0,0,.18.11l.44.21h.06a2.42,2.42,0,0,0,.51.19l.09,0,.41.1a1.55,1.55,0,0,0,.31.07,5.21,5.21,0,0,0,.57.08,8,8,0,0,0,.85,0h.33l.21,0a3,3,0,0,0,.52-.09,2.25,2.25,0,0,0,.51-.13,3.1,3.1,0,0,0,.52-.15,3.39,3.39,0,0,1,2.51,1.46.94.94,0,0,1,.1.14,3.67,3.67,0,0,1,.5,1.86v.05a3.15,3.15,0,0,1-2,2.95h0c-.23.07-.46.12-.7.18a14.83,14.83,0,0,1-1.51.22h0c-.37,0-.74,0-1.11,0a12.59,12.59,0,0,1-2.62-.26l-.64-.14-.47-.14-.66-.21-.1,0c-.26-.1-.51-.19-.76-.31a13.1,13.1,0,0,1-7.42-9c0-.11,0-.22-.07-.31a12,12,0,0,1-.19-1.26c0-.18,0-.35,0-.54s0-.53,0-.8,0-.83.06-1.23.1-.84.17-1.23c0-.19.08-.38.13-.57s.1-.39.16-.6.11-.38.18-.57l.12-.34L18,25a13,13,0,0,1,2.81-4.16,12.37,12.37,0,0,1,1.33-1.17,5.37,5.37,0,0,1,.59-.42,4.32,4.32,0,0,1,.53-.34,9.8,9.8,0,0,1,1.1-.6A4.85,4.85,0,0,1,25,18a5.31,5.31,0,0,1,.55-.23l.6-.2.62-.18a5.59,5.59,0,0,1,.71-.15,5,5,0,0,1,.56-.1c.2,0,.4-.06.6-.08L29,17h0c.31,0,.62,0,.94,0h1.2c.29,0,.58.06.88.11l.55.08a13,13,0,0,1,8.92,6.68l.34.7a6.69,6.69,0,0,1,.27.67c.06.14.12.3.17.44s.15.45.22.68a0,0,0,0,0,0,0c.1.4.2.8.27,1.19,0,.21.07.42.1.62s0,.42.07.64,0,.73,0,1.1Z"/>
        </g>
    </g>
</svg>